<svg width="14" height="14" viewBox="0 0 14 14" fill="none" xmlns="http://www.w3.org/2000/svg">
<g clip-path="url(#clip0_458_755)">
<path d="M6.97773 0.4375C4.11211 0.4375 1.68398 2.275 0.787109 4.8125H13.1684C12.2715 2.275 9.84336 0.4375 6.97773 0.4375Z" fill="#3E4347"/>
<path d="M6.97773 13.5625C9.84336 13.5625 12.2715 11.7469 13.1684 9.1875H0.787109C1.68398 11.7469 4.11211 13.5625 6.97773 13.5625V13.5625Z" fill="#FFE62E"/>
<path d="M0.787891 4.8125C0.547266 5.49062 0.416016 6.23438 0.416016 7C0.416016 7.76562 0.547266 8.50938 0.787891 9.1875H13.1691C13.4098 8.50938 13.541 7.76562 13.541 7C13.541 6.23438 13.4098 5.49062 13.1691 4.8125H0.787891Z" fill="#ED4C5C"/>
</g>
<defs>
<clipPath id="clip0_458_755">
<rect width="14" height="14" fill="white"/>
</clipPath>
</defs>
</svg>
