<svg width="40" height="40" viewBox="0 0 40 40" fill="none" xmlns="http://www.w3.org/2000/svg">
<path d="M27.8447 3.82183C27.6902 3.66676 27.5065 3.54378 27.3043 3.45997C27.1021 3.37616 26.8852 3.33318 26.6663 3.3335H13.333C13.1141 3.33318 12.8973 3.37616 12.6951 3.45997C12.4928 3.54378 12.3092 3.66676 12.1547 3.82183L3.82134 12.1552C3.66627 12.3097 3.54329 12.4933 3.45948 12.6956C3.37567 12.8978 3.33269 13.1146 3.33301 13.3335V26.6668C3.33301 27.1102 3.50801 27.5335 3.82134 27.8452L12.1547 36.1785C12.3092 36.3336 12.4928 36.4565 12.6951 36.5404C12.8973 36.6242 13.1141 36.6671 13.333 36.6668H26.6663C27.1097 36.6668 27.533 36.4918 27.8447 36.1785L36.178 27.8452C36.3331 27.6907 36.4561 27.507 36.5399 27.3048C36.6237 27.1025 36.6667 26.8857 36.6663 26.6668V13.3335C36.6667 13.1146 36.6237 12.8978 36.5399 12.6956C36.4561 12.4933 36.3331 12.3097 36.178 12.1552L27.8447 3.82183ZM21.6663 28.3335H18.333V25.0002H21.6663V28.3335ZM21.6663 21.6668H18.333V11.6668H21.6663V21.6668Z" fill="#26C2EE"/>
</svg>
