<svg width="14" height="14" viewBox="0 0 14 14" fill="none" xmlns="http://www.w3.org/2000/svg">
<g clip-path="url(#clip0_458_727)">
<path d="M7.0002 0.4375C4.13457 0.4375 1.70645 2.25313 0.80957 4.8125H13.1908C12.2939 2.25313 9.86582 0.4375 7.0002 0.4375Z" fill="#83BF4F"/>
<path d="M7.0002 13.5625C9.86582 13.5625 12.2939 11.7469 13.1908 9.1875H0.80957C1.70645 11.7469 4.13457 13.5625 7.0002 13.5625Z" fill="#ED4C5C"/>
<path d="M0.809375 4.8125C0.56875 5.49062 0.4375 6.23438 0.4375 7C0.4375 7.76562 0.56875 8.50938 0.809375 9.1875H13.1906C13.4312 8.50938 13.5625 7.76562 13.5625 7C13.5625 6.23438 13.4312 5.49062 13.1906 4.8125H0.809375Z" fill="#F9F9F9"/>
<path d="M12.9934 9.69092L12.9277 9.82217H12.9934V9.69092ZM1.07148 9.82217L1.00586 9.69092V9.82217H1.07148ZM1.22461 4.11279H1.11523C1.09336 4.13467 1.07148 4.15654 1.07148 4.17842H1.22461V4.11279Z" fill="white"/>
<path d="M1.2248 4.59395V4.52832H1.00605V4.39707H1.33418V4.59395H1.81543V4.09082H1.7498V4.50645H1.61855V4.09082H1.55293V4.50645H1.42168V4.09082H1.35605V4.30957H1.00605C0.98418 4.35332 0.962305 4.41895 0.94043 4.4627V4.59395H1.2248M1.2248 9.82207H1.07168C1.07168 9.84395 1.09355 9.86582 1.11543 9.8877H1.24668L1.2248 9.82207ZM1.00605 9.69082H1.33418V9.8877H1.81543V9.38457H1.7498V9.80019H1.61855V9.38457H1.55293V9.80019H1.42168V9.38457H1.35605V9.60332H0.98418C0.98418 9.64707 1.00605 9.66894 1.00605 9.69082Z" fill="white"/>
<path d="M1.22461 9.40644H0.896484C0.896484 9.42832 0.918359 9.45019 0.918359 9.47207H1.22461V9.40644ZM2.97461 4.59395H3.28086V4.52832H3.06211V4.39707H3.39023V4.59395H3.87148V4.09082H3.80586V4.52832H3.67461V4.09082H3.58711V4.52832H3.45586V4.09082H3.39023V4.30957H2.97461V4.59395ZM2.84336 4.59395V4.30957H2.55898V4.39707H2.77773V4.52832H2.44961V4.30957H1.96836V4.61582H2.03398V4.39707H2.36211V4.59395H2.84336Z" fill="white"/>
<path d="M2.14316 4.52842H2.25254V4.59404H2.14316V4.52842ZM1.94629 4.11279H3.28066V4.17842H1.94629V4.11279ZM2.55879 9.69092H2.77754V9.82217H2.44941V9.60342H1.96816V9.90967H2.03379V9.69092H2.36191V9.88779H2.84316V9.60342H2.55879V9.69092Z" fill="white"/>
<path d="M2.14316 9.82188H2.25254V9.8875H2.14316V9.82188ZM1.94629 9.40625H3.28066V9.47187H1.94629V9.40625Z" fill="white"/>
<path d="M3.80586 9.82207H3.67461V9.38457H3.58711V9.82207H3.45586V9.38457H3.39023V9.60332H2.97461V9.8877H3.28086V9.82207H3.06211V9.69082H3.39023V9.8877H3.87148V9.38457H3.80586V9.82207ZM5.03086 4.59395H5.31523V4.52832H5.09648V4.39707H5.42461V4.59395H5.90586V4.09082H5.84023V4.52832H5.70898V4.09082H5.64336V4.52832H5.51211V4.09082H5.42461V4.30957H5.03086V4.59395ZM4.89961 4.59395V4.30957H4.59336V4.39707H4.81211V4.52832H4.48398V4.30957H4.00273V4.61582H4.06836V4.39707H4.41836V4.59395H4.89961Z" fill="white"/>
<path d="M3.98047 4.11279H5.31484V4.17842H3.98047V4.11279ZM4.19922 4.52842H4.30859V4.59404H4.19922V4.52842ZM5.83984 9.82217H5.70859V9.38467H5.64297V9.82217H5.51172V9.38467H5.42422V9.60342H5.03047V9.88779H5.31484V9.82217H5.09609V9.69092H5.42422V9.88779H5.90547V9.38467H5.83984V9.82217ZM4.19922 9.82217H4.30859V9.88779H4.19922V9.82217Z" fill="white"/>
<path d="M3.98047 9.40654H5.31484V9.47217H3.98047V9.40654ZM4.59297 9.69092H4.81172V9.82217H4.48359V9.60342H4.00234V9.90967H4.06797V9.69092H4.41797V9.88779H4.89922V9.60342H4.59297V9.69092ZM6.93359 4.59404V4.30967H6.64922V4.39717H6.86797V4.52842H6.51797V4.30967H6.03672V4.61592H6.12422V4.39717H6.45234V4.59404H6.93359ZM6.03672 4.11279H7.37109V4.17842H6.03672V4.11279Z" fill="white"/>
<path d="M6.23398 4.52832H6.34336V4.59395H6.23398V4.52832ZM7.06523 4.59395H7.34961V4.52832H7.13086V4.39707H7.48086V4.59395H7.96211V4.09082H7.87461V4.52832H7.74336V4.09082H7.67773V4.52832H7.54648V4.09082H7.48086V4.30957H7.06523V4.59395ZM6.03711 9.40644H7.37148V9.47207H6.03711V9.40644ZM6.64961 9.69082H6.86836V9.82207H6.51836V9.60332H6.03711V9.90957H6.12461V9.69082H6.45273V9.88769H6.93398V9.60332H6.64961V9.69082Z" fill="white"/>
<path d="M6.23438 9.82217H6.34375V9.88779H6.23438V9.82217ZM7.875 9.82217H7.74375V9.38467H7.67812V9.82217H7.54688V9.38467H7.48125V9.60342H7.06562V9.88779H7.35V9.82217H7.13125V9.69092H7.48125V9.88779H7.9625V9.38467H7.875V9.82217ZM8.26875 4.52842H8.37812V4.59404H8.26875V4.52842ZM8.07188 4.11279H9.40625V4.17842H8.07188V4.11279Z" fill="white"/>
<path d="M9.09941 4.59395H9.40566V4.52832H9.18691V4.39707H9.51504V4.59395H9.99629V4.09082H9.93066V4.52832H9.79941V4.09082H9.71191V4.52832H9.58066V4.09082H9.51504V4.30957H9.09941V4.59395ZM8.96816 4.59395V4.30957H8.68379V4.39707H8.90254V4.52832H8.57441V4.30957H8.09316V4.61582H8.15879V4.39707H8.48691V4.59395H8.96816ZM8.07129 9.40644H9.40566V9.47207H8.07129V9.40644Z" fill="white"/>
<path d="M9.93125 9.82227H9.8V9.38477H9.7125V9.82227H9.58125V9.38477H9.51562V9.60352H9.1V9.88789H9.40625V9.82227H9.1875V9.69102H9.51562V9.88789H9.99688V9.38477H9.93125V9.82227ZM8.68438 9.69102H8.90313V9.82227H8.575V9.60352H8.09375V9.90977H8.15937V9.69102H8.4875V9.88789H8.96875V9.60352H8.68438V9.69102Z" fill="white"/>
<path d="M8.26855 9.82207H8.37793V9.8877H8.26855V9.82207ZM11.0248 4.59395V4.30957H10.7186V4.39707H10.9373V4.52832H10.6092V4.30957H10.1279V4.61582H10.1936V4.39707H10.5436V4.59395H11.0248Z" fill="white"/>
<path d="M10.3242 4.52842H10.4336V4.59404H10.3242V4.52842ZM10.1055 4.11279H11.4398V4.17842H10.1055V4.11279Z" fill="white"/>
<path d="M11.1555 4.59395H11.4398V4.52832H11.2211V4.39707H11.5492V4.59395H12.0305V4.09082H11.9648V4.52832H11.8336V4.09082H11.768V4.52832H11.6367V4.09082H11.5492V4.30957H11.1555V4.59395ZM10.3242 9.82207H10.4336V9.8877H10.3242V9.82207Z" fill="white"/>
<path d="M10.718 9.69062H10.9367V9.82188H10.6086V9.60313H10.1273V9.90937H10.193V9.69062H10.543V9.8875H11.0242V9.60313H10.718V9.69062ZM10.1055 9.40625H11.4398V9.47187H10.1055V9.40625Z" fill="white"/>
<path d="M11.9656 9.82217H11.8344V9.38467H11.7687V9.82217H11.6375V9.38467H11.55V9.60342H11.1562V9.88779H11.4406V9.82217H11.2219V9.69092H11.55V9.88779H12.0312V9.38467H11.9656V9.82217ZM12.1625 4.17842H12.9281C12.9062 4.15654 12.9063 4.13467 12.8844 4.11279H12.1406C12.1625 4.11279 12.1625 4.17842 12.1625 4.17842ZM12.775 4.39717H12.9938V4.52842H12.6656V4.33154H12.1844V4.61592H12.25V4.39717H12.5781V4.59404H13.0594V4.48467C13.0375 4.44092 13.0156 4.37529 12.9938 4.33154H12.775V4.39717" fill="white"/>
<path d="M12.359 4.52832H12.4684V4.59395H12.359V4.52832ZM12.359 9.82207H12.4684V9.8877H12.359V9.82207ZM12.1621 9.40645V9.47207H13.0809C13.0809 9.45019 13.1027 9.42832 13.1027 9.40645H12.1621M12.7746 9.69082H12.9934C13.0152 9.66894 13.0152 9.64707 13.0371 9.60332H12.7746V9.69082Z" fill="white"/>
<path d="M12.6434 9.82188V9.625H12.1621V9.90937H12.2496V9.69062H12.5777V9.8875H12.884C12.9059 9.86563 12.9059 9.84375 12.9277 9.82188H12.6434Z" fill="white"/>
<path d="M7.98417 7.41582C8.18105 6.84707 7.98417 6.2127 7.54667 5.81895C8.0498 6.5627 7.85292 7.54707 7.15292 8.07207L7.19667 6.84707V5.88457C7.10917 5.84082 7.04355 5.79707 6.9998 5.73145C6.95605 5.79707 6.89042 5.8627 6.80292 5.88457V6.84707L6.84667 8.07207C6.1248 7.54707 5.9498 6.5627 6.45292 5.81895C5.99355 6.2127 5.81855 6.84707 6.01542 7.41582C6.14667 7.80957 6.40917 8.09394 6.7373 8.26894C6.54042 8.33457 6.32167 8.37832 6.10292 8.37832C6.36542 8.46582 6.62792 8.46582 6.86855 8.42207V8.46582L6.9998 8.64082L7.13105 8.46582V8.42207C7.37167 8.46582 7.63417 8.46582 7.89667 8.37832C7.67792 8.37832 7.45917 8.35644 7.2623 8.26894C7.59042 8.09394 7.85292 7.7877 7.98417 7.41582" fill="#ED4C5C"/>
<path d="M8.46564 6.36582C8.29064 6.08145 8.00626 5.8627 7.67814 5.7752C8.40001 6.32207 8.55314 7.3502 8.00626 8.07207C8.61876 7.74395 8.81564 6.97832 8.46564 6.36582M6.30001 5.7752C5.97189 5.8627 5.68751 6.05957 5.51251 6.36582C5.16251 6.95645 5.38126 7.72207 5.97189 8.07207C5.44689 7.3502 5.57814 6.32207 6.30001 5.7752ZM6.67189 5.6877C6.78126 5.75332 6.93439 5.73145 7.00001 5.62207C7.06564 5.73145 7.21876 5.75332 7.32814 5.6877C7.41564 5.62207 7.45939 5.5127 7.41564 5.40332C7.39376 5.53457 7.28439 5.6002 7.15314 5.57832C7.08751 5.55645 7.04376 5.53457 7.00001 5.46895C6.97814 5.53457 6.91251 5.55645 6.84689 5.57832C6.71564 5.6002 6.60626 5.5127 6.58439 5.40332C6.54064 5.5127 6.58439 5.62207 6.67189 5.6877" fill="#ED4C5C"/>
</g>
<defs>
<clipPath id="clip0_458_727">
<rect width="14" height="14" fill="white"/>
</clipPath>
</defs>
</svg>
