<svg width="101" height="45" viewBox="0 0 101 45" fill="none" xmlns="http://www.w3.org/2000/svg">
    <path d="M81.9566 27.7352C81.9566 25.9721 83.1979 23.8282 84.7291 22.9467L97.7924 15.4259C99.3236 14.5444 100.565 15.259 100.565 17.0221V32.3131C100.565 34.0762 99.3236 36.2201 97.7924 37.1017L84.7291 44.6224C83.1979 45.504 81.9566 44.7893 81.9566 43.0262V27.7352Z" fill="url(#paint0_linear_443_866)"/>
    <path d="M58.8462 17.0221C58.8462 15.259 60.0875 14.5444 61.6187 15.4259L74.682 22.9467C76.2133 23.8282 77.4546 25.9721 77.4546 27.7352V43.0262C77.4546 44.7893 76.2133 45.504 74.682 44.6224L61.6187 37.1017C60.0875 36.2201 58.8462 34.0762 58.8462 32.3131L58.8462 17.0221Z" fill="url(#paint1_linear_443_866)"/>
    <path d="M63.6196 11.3743C62.0884 10.4928 62.0884 9.06347 63.6196 8.18192L76.6829 0.661163C78.2142 -0.220388 80.6968 -0.220387 82.228 0.661163L95.5079 8.30665C97.0392 9.1882 97.0392 10.6175 95.5079 11.499L82.4446 19.0198C80.9134 19.9013 78.4308 19.9013 76.8996 19.0198L63.6196 11.3743Z" fill="url(#paint2_linear_443_866)"/>
    <path fill-rule="evenodd" clip-rule="evenodd" d="M6.92308 31.1536H0V13.8459C0 10.0223 3.0995 6.92285 6.92308 6.92285V31.1536ZM48.4615 6.92285C44.638 6.92285 41.5385 10.0223 41.5385 13.8459V24.2305H38.0769V13.8459H31.1538V24.2305H27.6923V6.92285C23.8687 6.92285 20.7692 10.0223 20.7692 13.8459V24.2305C20.7692 28.0541 23.8687 31.1536 27.6923 31.1536H31.1538C32.7038 31.1536 34.0157 30.1349 34.4568 28.7305H34.7739C35.2151 30.1349 36.527 31.1536 38.0769 31.1536H41.5385C45.362 31.1536 48.4615 28.0541 48.4615 24.2305V6.92285ZM17.3077 13.8459H10.3846V38.0767C14.2082 38.0767 17.3077 34.9772 17.3077 31.1536V13.8459ZM37.5577 38.0767C38.9917 38.0767 40.1538 36.9143 40.1538 35.4805C40.1538 34.0467 38.9917 32.8844 37.5577 32.8844C36.1237 32.8844 34.9615 34.0467 34.9615 35.4805C34.9615 36.9143 36.1237 38.0767 37.5577 38.0767ZM34.2692 35.4805C34.2692 36.9143 33.107 38.0767 31.6731 38.0767C30.2391 38.0767 29.0769 36.9143 29.0769 35.4805C29.0769 34.0467 30.2391 32.8844 31.6731 32.8844C33.107 32.8844 34.2692 34.0467 34.2692 35.4805Z" fill="url(#paint3_linear_443_866)"/>
    <defs>
    <linearGradient id="paint0_linear_443_866" x1="58.8462" y1="0" x2="101.444" y2="1.37575" gradientUnits="userSpaceOnUse">
    <stop stop-color="#87FCC4"/>
    <stop offset="1" stop-color="#28C1F5"/>
    </linearGradient>
    <linearGradient id="paint1_linear_443_866" x1="58.8462" y1="0" x2="101.444" y2="1.37575" gradientUnits="userSpaceOnUse">
    <stop stop-color="#87FCC4"/>
    <stop offset="1" stop-color="#28C1F5"/>
    </linearGradient>
    <linearGradient id="paint2_linear_443_866" x1="58.8462" y1="0" x2="101.444" y2="1.37575" gradientUnits="userSpaceOnUse">
    <stop stop-color="#87FCC4"/>
    <stop offset="1" stop-color="#28C1F5"/>
    </linearGradient>
    <linearGradient id="paint3_linear_443_866" x1="0" y1="6.92285" x2="49.3892" y2="9.59925" gradientUnits="userSpaceOnUse">
    <stop stop-color="#87FCC4"/>
    <stop offset="1" stop-color="#28C1F5"/>
    </linearGradient>
    </defs>
    </svg>
    