<svg width="24" height="24" viewBox="0 0 24 24" fill="none" xmlns="http://www.w3.org/2000/svg">
<path d="M5.25001 11.9999C5.24988 10.7255 5.61055 9.47702 6.29031 8.39898C6.97007 7.32094 7.94114 6.45737 9.09119 5.90816C10.2412 5.35895 11.5233 5.14654 12.789 5.29551C14.0547 5.44447 15.2524 5.94872 16.2435 6.74993H14.625C14.3266 6.74993 14.0405 6.86846 13.8295 7.07944C13.6185 7.29041 13.5 7.57656 13.5 7.87493C13.5 8.1733 13.6185 8.45945 13.8295 8.67043C14.0405 8.88141 14.3266 8.99993 14.625 8.99993H18.375C18.6734 8.99993 18.9595 8.88141 19.1705 8.67043C19.3815 8.45945 19.5 8.1733 19.5 7.87493V4.12493C19.5 3.82656 19.3815 3.54042 19.1705 3.32944C18.9595 3.11846 18.6734 2.99993 18.375 2.99993C18.0766 2.99993 17.7905 3.11846 17.5795 3.32944C17.3685 3.54042 17.25 3.82656 17.25 4.12493V4.68893C15.6098 3.51094 13.621 2.91881 11.6036 3.00776C9.58612 3.09672 7.6572 3.86158 6.12701 5.17936C4.59682 6.49714 3.55428 8.29125 3.16703 10.2732C2.77979 12.2551 3.07035 14.3097 3.992 16.1065C4.91364 17.9034 6.4128 19.338 8.2484 20.1798C10.084 21.0216 12.1494 21.2216 14.1124 20.7476C16.0754 20.2737 17.8219 19.1533 19.0712 17.5666C20.3205 15.98 20.9998 14.0193 21 11.9999C21 11.7016 20.8815 11.4154 20.6705 11.2044C20.4595 10.9935 20.1734 10.8749 19.875 10.8749C19.5766 10.8749 19.2905 10.9935 19.0795 11.2044C18.8685 11.4154 18.75 11.7016 18.75 11.9999C18.75 13.7901 18.0389 15.507 16.773 16.7729C15.5071 18.0388 13.7902 18.7499 12 18.7499C10.2098 18.7499 8.49291 18.0388 7.22704 16.7729C5.96117 15.507 5.25001 13.7901 5.25001 11.9999V11.9999Z" fill="url(#paint0_linear_321_2612)"/>
<defs>
<linearGradient id="paint0_linear_321_2612" x1="3" y1="2.99902" x2="21.3762" y2="3.63918" gradientUnits="userSpaceOnUse">
<stop stop-color="#87FCC4"/>
<stop offset="1" stop-color="#28C1F5"/>
</linearGradient>
</defs>
</svg>
