<svg width="53" height="53" viewBox="0 0 53 53" fill="none" xmlns="http://www.w3.org/2000/svg">
<path d="M9.47917 4.375C8.12546 4.375 6.82719 4.91276 5.86998 5.86998C4.91276 6.82719 4.375 8.12546 4.375 9.47917V13.8542C4.375 14.4343 4.14453 14.9907 3.7343 15.401C3.32406 15.8112 2.76766 16.0417 2.1875 16.0417C1.60734 16.0417 1.05094 15.8112 0.640704 15.401C0.230468 14.9907 0 14.4343 0 13.8542V9.47917C0 6.96514 0.998695 4.55407 2.77638 2.77638C4.55407 0.998695 6.96514 0 9.47917 0H13.8542C14.4343 0 14.9907 0.230468 15.401 0.640704C15.8112 1.05094 16.0417 1.60734 16.0417 2.1875C16.0417 2.76766 15.8112 3.32406 15.401 3.7343C14.9907 4.14453 14.4343 4.375 13.8542 4.375H9.47917ZM48.125 9.47917C48.125 8.12546 47.5872 6.82719 46.63 5.86998C45.6728 4.91276 44.3745 4.375 43.0208 4.375H38.6458C38.0657 4.375 37.5093 4.14453 37.099 3.7343C36.6888 3.32406 36.4583 2.76766 36.4583 2.1875C36.4583 1.60734 36.6888 1.05094 37.099 0.640704C37.5093 0.230468 38.0657 0 38.6458 0H43.0208C45.5349 0 47.9459 0.998695 49.7236 2.77638C51.5013 4.55407 52.5 6.96514 52.5 9.47917V13.8542C52.5 14.4343 52.2695 14.9907 51.8593 15.401C51.4491 15.8112 50.8927 16.0417 50.3125 16.0417C49.7323 16.0417 49.1759 15.8112 48.7657 15.401C48.3555 14.9907 48.125 14.4343 48.125 13.8542V9.47917ZM48.125 43.0208C48.125 44.3745 47.5872 45.6728 46.63 46.63C45.6728 47.5872 44.3745 48.125 43.0208 48.125H38.6458C38.0657 48.125 37.5093 48.3555 37.099 48.7657C36.6888 49.1759 36.4583 49.7323 36.4583 50.3125C36.4583 50.8927 36.6888 51.4491 37.099 51.8593C37.5093 52.2695 38.0657 52.5 38.6458 52.5H43.0208C45.5349 52.5 47.9459 51.5013 49.7236 49.7236C51.5013 47.9459 52.5 45.5349 52.5 43.0208V38.6458C52.5 38.0657 52.2695 37.5093 51.8593 37.099C51.4491 36.6888 50.8927 36.4583 50.3125 36.4583C49.7323 36.4583 49.1759 36.6888 48.7657 37.099C48.3555 37.5093 48.125 38.0657 48.125 38.6458V43.0208ZM4.375 43.0208C4.375 45.8383 6.66167 48.125 9.47917 48.125H13.8542C14.4343 48.125 14.9907 48.3555 15.401 48.7657C15.8112 49.1759 16.0417 49.7323 16.0417 50.3125C16.0417 50.8927 15.8112 51.4491 15.401 51.8593C14.9907 52.2695 14.4343 52.5 13.8542 52.5H9.47917C6.96514 52.5 4.55407 51.5013 2.77638 49.7236C0.998695 47.9459 0 45.5349 0 43.0208V38.6458C0 38.0657 0.230468 37.5093 0.640704 37.099C1.05094 36.6888 1.60734 36.4583 2.1875 36.4583C2.76766 36.4583 3.32406 36.6888 3.7343 37.099C4.14453 37.5093 4.375 38.0657 4.375 38.6458V43.0208ZM15.3125 8.75C13.572 8.75 11.9028 9.44141 10.6721 10.6721C9.44141 11.9028 8.75 13.572 8.75 15.3125V37.1875C8.75 38.928 9.44141 40.5972 10.6721 41.8279C11.9028 43.0586 13.572 43.75 15.3125 43.75H37.1875C38.928 43.75 40.5972 43.0586 41.8279 41.8279C43.0586 40.5972 43.75 38.928 43.75 37.1875V15.3125C43.75 13.572 43.0586 11.9028 41.8279 10.6721C40.5972 9.44141 38.928 8.75 37.1875 8.75H15.3125ZM13.125 15.3125C13.125 14.7323 13.3555 14.1759 13.7657 13.7657C14.1759 13.3555 14.7323 13.125 15.3125 13.125H37.1875C37.7677 13.125 38.3241 13.3555 38.7343 13.7657C39.1445 14.1759 39.375 14.7323 39.375 15.3125V37.1875C39.375 37.7677 39.1445 38.3241 38.7343 38.7343C38.3241 39.1445 37.7677 39.375 37.1875 39.375H15.3125C14.7323 39.375 14.1759 39.1445 13.7657 38.7343C13.3555 38.3241 13.125 37.7677 13.125 37.1875V15.3125Z" fill="white"/>
</svg>
