<svg width="16" height="16" viewBox="0 0 16 16" fill="none" xmlns="http://www.w3.org/2000/svg">
<path d="M3.50001 8.00012C3.49992 7.15048 3.74037 6.31818 4.19354 5.59948C4.64672 4.88079 5.29409 4.30508 6.06079 3.93894C6.82749 3.57279 7.68218 3.43119 8.52599 3.5305C9.36981 3.62981 10.1683 3.96598 10.829 4.50012H9.75001C9.5511 4.50012 9.36033 4.57913 9.21968 4.71979C9.07903 4.86044 9.00001 5.0512 9.00001 5.25012C9.00001 5.44903 9.07903 5.6398 9.21968 5.78045C9.36033 5.9211 9.5511 6.00012 9.75001 6.00012H12.25C12.4489 6.00012 12.6397 5.9211 12.7803 5.78045C12.921 5.6398 13 5.44903 13 5.25012V2.75012C13 2.55121 12.921 2.36044 12.7803 2.21979C12.6397 2.07913 12.4489 2.00012 12.25 2.00012C12.0511 2.00012 11.8603 2.07913 11.7197 2.21979C11.579 2.36044 11.5 2.55121 11.5 2.75012V3.12612C10.4065 2.34079 9.08069 1.94604 7.73572 2.00534C6.39075 2.06464 5.1048 2.57455 4.08467 3.45307C3.06455 4.33159 2.36952 5.52767 2.11136 6.84896C1.85319 8.17025 2.0469 9.53997 2.66133 10.7379C3.27576 11.9357 4.2752 12.8922 5.49893 13.4534C6.72267 14.0146 8.09958 14.1479 9.40825 13.8319C10.7169 13.5159 11.8813 12.769 12.7141 11.7113C13.547 10.6535 13.9999 9.34639 14 8.00012C14 7.8012 13.921 7.61044 13.7803 7.46979C13.6397 7.32913 13.4489 7.25012 13.25 7.25012C13.0511 7.25012 12.8603 7.32913 12.7197 7.46979C12.579 7.61044 12.5 7.8012 12.5 8.00012C12.5 9.19359 12.0259 10.3382 11.182 11.1821C10.3381 12.026 9.19348 12.5001 8.00001 12.5001C6.80653 12.5001 5.66194 12.026 4.81803 11.1821C3.97411 10.3382 3.50001 9.19359 3.50001 8.00012V8.00012Z" fill="white"/>
</svg>
