<svg width="30" height="30" viewBox="0 0 30 30" fill="none" xmlns="http://www.w3.org/2000/svg">
<path d="M29.9926 6.97562C29.9915 6.96734 29.9901 6.95918 29.9888 6.95101C29.9838 6.9206 29.9773 6.89073 29.9689 6.86151C29.9677 6.85699 29.9667 6.85259 29.9654 6.84807C29.955 6.81434 29.9425 6.78146 29.9278 6.74965C29.9254 6.74428 29.9225 6.73912 29.92 6.73375C29.9067 6.70624 29.8918 6.67959 29.8755 6.65391C29.8723 6.64876 29.8692 6.64349 29.8659 6.63844C29.8468 6.60986 29.826 6.58257 29.8034 6.55667C29.799 6.55162 29.7942 6.54689 29.7896 6.54184C29.7698 6.52025 29.7488 6.49972 29.7268 6.48028C29.7212 6.47533 29.7158 6.47018 29.71 6.46545C29.6833 6.4431 29.655 6.42236 29.6255 6.40345C29.6209 6.40055 29.6161 6.39797 29.6115 6.39518C29.5834 6.37798 29.5542 6.36251 29.524 6.34865C29.5209 6.34725 29.5182 6.34532 29.5151 6.34392L15.3415 0.0721251C15.1245 -0.0240417 14.8753 -0.0240417 14.6583 0.0721251L4.86494 4.40587C4.44923 4.58982 4.26529 5.06743 4.45397 5.47273C4.64254 5.87802 5.13264 6.05789 5.54823 5.8734L14.9999 1.69084L27.1468 7.06598L14.9999 12.2705L1.15895 6.34016C1.15796 6.33973 1.15697 6.33952 1.15598 6.33909C1.1357 6.33049 1.11476 6.32308 1.09371 6.31599C1.08842 6.31416 1.08313 6.31201 1.07784 6.31029C1.06054 6.30492 1.04268 6.30073 1.02494 6.29643C1.01557 6.29417 1.0062 6.29138 0.996727 6.28945C0.985375 6.28708 0.973693 6.28579 0.962121 6.28386C0.946031 6.28128 0.92994 6.27838 0.91385 6.27666C0.906356 6.27591 0.898531 6.2758 0.890927 6.27526C0.870758 6.27376 0.8507 6.27247 0.830642 6.27236C0.82921 6.27236 0.827887 6.27215 0.826455 6.27215C0.81863 6.27215 0.811025 6.27311 0.803311 6.27333C0.785457 6.27376 0.767603 6.2743 0.74997 6.27591C0.736194 6.27709 0.722748 6.27924 0.709193 6.28117C0.696739 6.283 0.684175 6.2844 0.671942 6.28676C0.65508 6.28988 0.638659 6.29396 0.622128 6.29793C0.613201 6.30019 0.604274 6.30213 0.595457 6.3047C0.577603 6.30975 0.56019 6.31577 0.542888 6.3219C0.535393 6.32447 0.527899 6.32695 0.520515 6.32985C0.503433 6.33651 0.486792 6.34392 0.47026 6.35166C0.462656 6.35531 0.454831 6.35864 0.447337 6.36251C0.432348 6.37003 0.417691 6.37831 0.403253 6.3868C0.394326 6.39195 0.3854 6.397 0.376803 6.40248C0.36435 6.41033 0.352337 6.41882 0.340324 6.4273C0.330295 6.4344 0.320266 6.44149 0.310568 6.44901C0.300429 6.45696 0.29062 6.46534 0.280922 6.47372C0.270342 6.48275 0.259872 6.49167 0.249843 6.50123C0.241136 6.5095 0.232871 6.51831 0.224605 6.52691C0.214686 6.53722 0.204768 6.54743 0.19529 6.55828C0.186914 6.56795 0.179089 6.57827 0.171044 6.58837C0.162888 6.59868 0.154733 6.60878 0.147018 6.61964C0.137871 6.63253 0.129605 6.64596 0.121229 6.65939C0.115829 6.6681 0.110098 6.67659 0.104919 6.6855C0.0949998 6.70291 0.0861832 6.72085 0.0774767 6.73891C0.0750521 6.74406 0.0720764 6.74868 0.069762 6.75395C0.0693212 6.75492 0.0691008 6.75599 0.06866 6.75685C0.0598433 6.77662 0.0522389 6.79693 0.0450753 6.81734C0.0432018 6.82261 0.0408874 6.82777 0.0391241 6.83303C0.0337238 6.84969 0.0294257 6.86688 0.0251276 6.88396C0.022703 6.89342 0.0197274 6.90277 0.0176334 6.91233C0.015319 6.92286 0.0141067 6.9336 0.0122332 6.94424C0.00936774 6.96057 0.00628191 6.97691 0.00451857 6.99334C0.00385732 6.99979 0.00385732 7.00624 0.00330628 7.01269C0.00154294 7.03332 0.000220436 7.05405 0.000110227 7.07468C0.000110227 7.07587 0 7.07694 0 7.07823V22.8117C0 23.126 0.187355 23.4115 0.479959 23.5433L14.6534 29.9255C14.6534 29.9255 14.6554 29.9262 14.6563 29.9267C14.6624 29.9293 14.6685 29.9312 14.6746 29.9337C14.7022 29.9452 14.7298 29.9553 14.7579 29.9637C14.7677 29.9666 14.7777 29.9691 14.7877 29.9716C14.8145 29.9786 14.8412 29.9842 14.8681 29.9885C14.8764 29.9898 14.8847 29.9914 14.893 29.9925C14.9285 29.997 14.9641 30 14.9995 30C15.003 30 15.0064 29.9994 15.01 29.9992C15.0412 29.9989 15.0724 29.9967 15.1034 29.9928C15.1149 29.9914 15.1261 29.9893 15.1374 29.9874C15.1615 29.9835 15.1855 29.9785 15.2093 29.9724C15.2205 29.9696 15.2314 29.9668 15.2423 29.9635C15.2686 29.9556 15.2944 29.9463 15.3201 29.9357C15.3273 29.9328 15.3345 29.9305 15.3416 29.9274C15.3432 29.9266 15.345 29.9262 15.3466 29.9254L29.52 23.5432C29.8126 23.4114 30 23.1258 30 22.8116V7.07791C30 7.0432 29.997 7.00914 29.9926 6.97562ZM15.8265 27.9338V17.113C15.8265 16.6678 15.4565 16.3071 14.9999 16.3071C14.5434 16.3071 14.1734 16.6678 14.1734 17.113V27.9339L1.65302 22.296V8.31228L14.6674 13.8885C14.7735 13.9339 14.8867 13.9566 15.0001 13.9566C15.1135 13.9566 15.2266 13.9339 15.3327 13.8885L28.3469 8.31228V22.2959L15.8265 27.9338Z" fill="#303030"/>
</svg>
