<svg width="18" height="18" viewBox="0 0 18 18" fill="none" xmlns="http://www.w3.org/2000/svg">
<path d="M2.25001 8.99993C2.24988 7.72547 2.61055 6.47702 3.29031 5.39898C3.97007 4.32094 4.94114 3.45737 6.09119 2.90816C7.24123 2.35895 8.52327 2.14654 9.78899 2.29551C11.0547 2.44447 12.2524 2.94872 13.2435 3.74993H11.625C11.3266 3.74993 11.0405 3.86846 10.8295 4.07944C10.6185 4.29041 10.5 4.57656 10.5 4.87493C10.5 5.1733 10.6185 5.45945 10.8295 5.67043C11.0405 5.88141 11.3266 5.99993 11.625 5.99993H15.375C15.6734 5.99993 15.9595 5.88141 16.1705 5.67043C16.3815 5.45945 16.5 5.1733 16.5 4.87493V1.12493C16.5 0.826563 16.3815 0.540415 16.1705 0.329437C15.9595 0.118458 15.6734 -6.80349e-05 15.375 -6.80349e-05C15.0766 -6.80349e-05 14.7905 0.118458 14.5795 0.329437C14.3685 0.540415 14.25 0.826563 14.25 1.12493V1.68893C12.6098 0.510941 10.621 -0.0811889 8.60357 0.0077633C6.58612 0.0967155 4.6572 0.861581 3.12701 2.17936C1.59682 3.49714 0.554276 5.29125 0.167034 7.27319C-0.220208 9.25513 0.0703547 11.3097 0.991997 13.1065C1.91364 14.9034 3.4128 16.338 5.2484 17.1798C7.084 18.0216 9.14937 18.2216 11.1124 17.7476C13.0754 17.2737 14.8219 16.1533 16.0712 14.5666C17.3205 12.98 17.9998 11.0193 18 8.99993C18 8.70156 17.8815 8.41541 17.6705 8.20444C17.4595 7.99346 17.1734 7.87493 16.875 7.87493C16.5766 7.87493 16.2905 7.99346 16.0795 8.20444C15.8685 8.41541 15.75 8.70156 15.75 8.99993C15.75 10.7901 15.0389 12.507 13.773 13.7729C12.5071 15.0388 10.7902 15.7499 9.00001 15.7499C7.2098 15.7499 5.49291 15.0388 4.22704 13.7729C2.96117 12.507 2.25001 10.7901 2.25001 8.99993Z" fill="url(#paint0_linear_321_2613)"/>
<defs>
<linearGradient id="paint0_linear_321_2613" x1="0" y1="-0.000976562" x2="18.3762" y2="0.639183" gradientUnits="userSpaceOnUse">
<stop stop-color="#87FCC4"/>
<stop offset="1" stop-color="#28C1F5"/>
</linearGradient>
</defs>
</svg>
